<svg width="35" height="34" viewBox="0 0 35 34" fill="none" xmlns="http://www.w3.org/2000/svg">
<ellipse cx="17.5" cy="17" rx="17.5" ry="17" fill="#F34A38"/>
<path d="M15.1567 17.8721H17.3667C16.9788 18.9689 15.9281 19.7553 14.6981 19.7462C13.2056 19.7352 11.9715 18.5412 11.9135 17.0498C11.8514 15.4511 13.134 14.1307 14.7192 14.1307C15.444 14.1307 16.1054 14.4068 16.604 14.8594C16.7221 14.9666 16.9019 14.9672 17.018 14.8579L17.8298 14.0939C17.9567 13.9744 17.9572 13.7726 17.8306 13.6527C17.0398 12.9036 15.979 12.4366 14.8092 12.4138C12.3142 12.365 10.2111 14.4107 10.1937 16.9062C10.1762 19.4204 12.209 21.464 14.7192 21.464C17.1331 21.464 19.1051 19.5739 19.2372 17.193C19.2407 17.1632 19.2431 16.1543 19.2431 16.1543H15.1567C14.9892 16.1543 14.8534 16.2901 14.8534 16.4576V17.5689C14.8534 17.7364 14.9892 17.8721 15.1567 17.8721Z" fill="white"/>
<path d="M22.9878 16.2552V15.1694C22.9878 15.0227 22.8688 14.9037 22.7221 14.9037H21.8082C21.6614 14.9037 21.5424 15.0227 21.5424 15.1694V16.2552H20.4567C20.3099 16.2552 20.1909 16.3742 20.1909 16.521V17.4348C20.1909 17.5816 20.3099 17.7006 20.4567 17.7006H21.5424V18.7863C21.5424 18.9331 21.6614 19.0521 21.8082 19.0521H22.7221C22.8688 19.0521 22.9878 18.9331 22.9878 18.7863V17.7006H24.0736C24.2204 17.7006 24.3393 17.5816 24.3393 17.4348V16.521C24.3393 16.3742 24.2204 16.2552 24.0736 16.2552H22.9878Z" fill="white"/>
</svg>
